<svg width="161" height="34" viewBox="0 0 161 34" fill="none" xmlns="http://www.w3.org/2000/svg">
<path d="M0.761719 9V0.46875H3.75C4.78516 0.46875 5.57031 0.667969 6.10547 1.06641C6.64062 1.46094 6.9082 2.04102 6.9082 2.80664C6.9082 3.22461 6.80078 3.59375 6.58594 3.91406C6.37109 4.23047 6.07227 4.46289 5.68945 4.61133C6.12695 4.7207 6.4707 4.94141 6.7207 5.27344C6.97461 5.60547 7.10156 6.01172 7.10156 6.49219C7.10156 7.3125 6.83984 7.93359 6.31641 8.35547C5.79297 8.77734 5.04688 8.99219 4.07812 9H0.761719ZM2.51953 5.28516V7.58789H4.02539C4.43945 7.58789 4.76172 7.49023 4.99219 7.29492C5.22656 7.0957 5.34375 6.82227 5.34375 6.47461C5.34375 5.69336 4.93945 5.29688 4.13086 5.28516H2.51953ZM2.51953 4.04297H3.82031C4.70703 4.02734 5.15039 3.67383 5.15039 2.98242C5.15039 2.5957 5.03711 2.31836 4.81055 2.15039C4.58789 1.97852 4.23438 1.89258 3.75 1.89258H2.51953V4.04297ZM15.5836 4.92773C15.5836 5.76758 15.4352 6.50391 15.1383 7.13672C14.8414 7.76953 14.4156 8.25781 13.8609 8.60156C13.3102 8.94531 12.6773 9.11719 11.9625 9.11719C11.2555 9.11719 10.6246 8.94727 10.0699 8.60742C9.51523 8.26758 9.08555 7.7832 8.78086 7.1543C8.47617 6.52148 8.32188 5.79492 8.31797 4.97461V4.55273C8.31797 3.71289 8.46836 2.97461 8.76914 2.33789C9.07383 1.69727 9.50156 1.20703 10.0523 0.867188C10.607 0.523438 11.2398 0.351562 11.9508 0.351562C12.6617 0.351562 13.2926 0.523438 13.8434 0.867188C14.398 1.20703 14.8258 1.69727 15.1266 2.33789C15.4313 2.97461 15.5836 3.71094 15.5836 4.54688V4.92773ZM13.8023 4.54102C13.8023 3.64648 13.6422 2.9668 13.3219 2.50195C13.0016 2.03711 12.5445 1.80469 11.9508 1.80469C11.3609 1.80469 10.9059 2.03516 10.5855 2.49609C10.2652 2.95312 10.1031 3.625 10.0992 4.51172V4.92773C10.0992 5.79883 10.2594 6.47461 10.5797 6.95508C10.9 7.43555 11.3609 7.67578 11.9625 7.67578C12.5523 7.67578 13.0055 7.44531 13.3219 6.98438C13.6383 6.51953 13.7984 5.84375 13.8023 4.95703V4.54102ZM21.6984 7.24219H18.6164L18.0305 9H16.1613L19.3371 0.46875H20.966L24.1594 9H22.2902L21.6984 7.24219ZM19.091 5.81836H21.2238L20.1516 2.625L19.091 5.81836ZM28.2645 5.87695H26.8641V9H25.1063V0.46875H28.2762C29.284 0.46875 30.0613 0.693359 30.6082 1.14258C31.1551 1.5918 31.4285 2.22656 31.4285 3.04688C31.4285 3.62891 31.3016 4.11523 31.0477 4.50586C30.7977 4.89258 30.4168 5.20117 29.9051 5.43164L31.7508 8.91797V9H29.8641L28.2645 5.87695ZM26.8641 4.45312H28.282C28.7234 4.45312 29.0652 4.3418 29.3074 4.11914C29.5496 3.89258 29.6707 3.58203 29.6707 3.1875C29.6707 2.78516 29.5555 2.46875 29.325 2.23828C29.0984 2.00781 28.7488 1.89258 28.2762 1.89258H26.8641V4.45312ZM32.9203 9V0.46875H35.5453C36.2953 0.46875 36.9652 0.638672 37.5551 0.978516C38.1488 1.31445 38.6117 1.79492 38.9437 2.41992C39.2758 3.04102 39.4418 3.74805 39.4418 4.54102V4.93359C39.4418 5.72656 39.2777 6.43164 38.9496 7.04883C38.6254 7.66602 38.1664 8.14453 37.5727 8.48438C36.9789 8.82422 36.309 8.99609 35.5629 9H32.9203ZM34.6781 1.89258V7.58789H35.5277C36.2152 7.58789 36.7406 7.36328 37.1039 6.91406C37.4672 6.46484 37.6527 5.82227 37.6605 4.98633V4.53516C37.6605 3.66797 37.4809 3.01172 37.1215 2.56641C36.7621 2.11719 36.2367 1.89258 35.5453 1.89258H34.6781ZM42.7441 9H40.9863V0.46875H42.7441V9ZM51.4664 9H49.7086L46.2867 3.38672V9H44.5289V0.46875H46.2867L49.7145 6.09375V0.46875H51.4664V9ZM59.9016 7.92188C59.5852 8.30078 59.1379 8.5957 58.5598 8.80664C57.9816 9.01367 57.341 9.11719 56.6379 9.11719C55.8996 9.11719 55.2512 8.95703 54.6926 8.63672C54.1379 8.3125 53.7082 7.84375 53.4035 7.23047C53.1027 6.61719 52.9484 5.89648 52.9406 5.06836V4.48828C52.9406 3.63672 53.0832 2.90039 53.3684 2.2793C53.6574 1.6543 54.0715 1.17773 54.6105 0.849609C55.1535 0.517578 55.7883 0.351562 56.5148 0.351562C57.5266 0.351562 58.3176 0.59375 58.8879 1.07812C59.4582 1.55859 59.7961 2.25977 59.9016 3.18164H58.1906C58.1125 2.69336 57.9387 2.33594 57.6691 2.10938C57.4035 1.88281 57.0363 1.76953 56.5676 1.76953C55.9699 1.76953 55.5148 1.99414 55.2023 2.44336C54.8898 2.89258 54.7316 3.56055 54.7277 4.44727V4.99219C54.7277 5.88672 54.8977 6.5625 55.2375 7.01953C55.5773 7.47656 56.0754 7.70508 56.7316 7.70508C57.3918 7.70508 57.8625 7.56445 58.1437 7.2832V5.8125H56.5441V4.51758H59.9016V7.92188ZM71.5629 9H69.8051V5.34375H66.3773V9H64.6195V0.46875H66.3773V3.92578H69.8051V0.46875H71.5629V9ZM80.2617 4.92773C80.2617 5.76758 80.1133 6.50391 79.8164 7.13672C79.5195 7.76953 79.0938 8.25781 78.5391 8.60156C77.9883 8.94531 77.3555 9.11719 76.6406 9.11719C75.9336 9.11719 75.3027 8.94727 74.748 8.60742C74.1934 8.26758 73.7637 7.7832 73.459 7.1543C73.1543 6.52148 73 5.79492 72.9961 4.97461V4.55273C72.9961 3.71289 73.1465 2.97461 73.4473 2.33789C73.752 1.69727 74.1797 1.20703 74.7305 0.867188C75.2852 0.523438 75.918 0.351562 76.6289 0.351562C77.3398 0.351562 77.9707 0.523438 78.5215 0.867188C79.0762 1.20703 79.5039 1.69727 79.8047 2.33789C80.1094 2.97461 80.2617 3.71094 80.2617 4.54688V4.92773ZM78.4805 4.54102C78.4805 3.64648 78.3203 2.9668 78 2.50195C77.6797 2.03711 77.2227 1.80469 76.6289 1.80469C76.0391 1.80469 75.584 2.03516 75.2637 2.49609C74.9434 2.95312 74.7812 3.625 74.7773 4.51172V4.92773C74.7773 5.79883 74.9375 6.47461 75.2578 6.95508C75.5781 7.43555 76.0391 7.67578 76.6406 7.67578C77.2305 7.67578 77.6836 7.44531 78 6.98438C78.3164 6.51953 78.4766 5.84375 78.4805 4.95703V4.54102ZM88.1461 0.46875V6.08789C88.1461 7.02148 87.8531 7.75977 87.2672 8.30273C86.6852 8.8457 85.8883 9.11719 84.8766 9.11719C83.8805 9.11719 83.0895 8.85352 82.5035 8.32617C81.9176 7.79883 81.6188 7.07422 81.607 6.15234V0.46875H83.3648V6.09961C83.3648 6.6582 83.4977 7.06641 83.7633 7.32422C84.0328 7.57812 84.4039 7.70508 84.8766 7.70508C85.8648 7.70508 86.3668 7.18555 86.3824 6.14648V0.46875H88.1461ZM92.8957 5.87695H91.4953V9H89.7375V0.46875H92.9074C93.9152 0.46875 94.6926 0.693359 95.2395 1.14258C95.7863 1.5918 96.0598 2.22656 96.0598 3.04688C96.0598 3.62891 95.9328 4.11523 95.6789 4.50586C95.4289 4.89258 95.048 5.20117 94.5363 5.43164L96.382 8.91797V9H94.4953L92.8957 5.87695ZM91.4953 4.45312H92.9133C93.3547 4.45312 93.6965 4.3418 93.9387 4.11914C94.1809 3.89258 94.302 3.58203 94.302 3.1875C94.302 2.78516 94.1867 2.46875 93.9563 2.23828C93.7297 2.00781 93.3801 1.89258 92.9074 1.89258H91.4953V4.45312ZM101.975 6.76172C101.975 6.42969 101.858 6.17578 101.624 6C101.389 5.82031 100.968 5.63281 100.358 5.4375C99.7488 5.23828 99.2664 5.04297 98.9109 4.85156C97.9422 4.32812 97.4578 3.62305 97.4578 2.73633C97.4578 2.27539 97.5867 1.86523 97.8445 1.50586C98.1062 1.14258 98.4793 0.859375 98.9637 0.65625C99.452 0.453125 99.9988 0.351562 100.604 0.351562C101.214 0.351562 101.757 0.462891 102.233 0.685547C102.71 0.904297 103.079 1.21484 103.341 1.61719C103.606 2.01953 103.739 2.47656 103.739 2.98828H101.981C101.981 2.59766 101.858 2.29492 101.612 2.08008C101.366 1.86133 101.02 1.75195 100.575 1.75195C100.145 1.75195 99.8113 1.84375 99.573 2.02734C99.3348 2.20703 99.2156 2.44531 99.2156 2.74219C99.2156 3.01953 99.3543 3.25195 99.6316 3.43945C99.9129 3.62695 100.325 3.80273 100.868 3.9668C101.868 4.26758 102.596 4.64062 103.054 5.08594C103.511 5.53125 103.739 6.08594 103.739 6.75C103.739 7.48828 103.46 8.06836 102.901 8.49023C102.343 8.9082 101.591 9.11719 100.645 9.11719C99.9891 9.11719 99.3914 8.99805 98.8523 8.75977C98.3133 8.51758 97.9012 8.1875 97.616 7.76953C97.3348 7.35156 97.1941 6.86719 97.1941 6.31641H98.9578C98.9578 7.25781 99.5203 7.72852 100.645 7.72852C101.063 7.72852 101.389 7.64453 101.624 7.47656C101.858 7.30469 101.975 7.06641 101.975 6.76172ZM3.05859 22.4688L5.25 28.6562L7.42969 22.4688H9.73828V31H7.97461V28.668L8.15039 24.6426L5.84766 31H4.64062L2.34375 24.6484L2.51953 28.668V31H0.761719V22.4688H3.05859ZM11.0484 27.7715C11.0484 27.1426 11.1695 26.582 11.4117 26.0898C11.6539 25.5977 12.0016 25.2168 12.4547 24.9473C12.9117 24.6777 13.441 24.543 14.0426 24.543C14.898 24.543 15.5953 24.8047 16.1344 25.3281C16.6773 25.8516 16.9801 26.5625 17.0426 27.4609L17.0543 27.8945C17.0543 28.8672 16.7828 29.6484 16.2398 30.2383C15.6969 30.8242 14.9684 31.1172 14.0543 31.1172C13.1402 31.1172 12.4098 30.8242 11.8629 30.2383C11.3199 29.6523 11.0484 28.8555 11.0484 27.8477V27.7715ZM12.7418 27.8945C12.7418 28.4961 12.8551 28.957 13.0816 29.2773C13.3082 29.5938 13.6324 29.752 14.0543 29.752C14.4645 29.752 14.7848 29.5957 15.0152 29.2832C15.2457 28.9668 15.3609 28.4629 15.3609 27.7715C15.3609 27.1816 15.2457 26.7246 15.0152 26.4004C14.7848 26.0762 14.4605 25.9141 14.0426 25.9141C13.6285 25.9141 13.3082 26.0762 13.0816 26.4004C12.8551 26.7207 12.7418 27.2188 12.7418 27.8945ZM19.8059 24.6602L19.8586 25.3926C20.3117 24.8262 20.9191 24.543 21.6809 24.543C22.3527 24.543 22.8527 24.7402 23.1809 25.1348C23.509 25.5293 23.677 26.1191 23.6848 26.9043V31H21.9914V26.9453C21.9914 26.5859 21.9133 26.3262 21.757 26.166C21.6008 26.002 21.341 25.9199 20.9777 25.9199C20.5012 25.9199 20.1437 26.123 19.9055 26.5293V31H18.2121V24.6602H19.8059ZM31.5551 28.0293H28.2563V26.6641H31.5551V28.0293ZM40.7379 28.7617C40.7379 28.4297 40.6207 28.1758 40.3863 28C40.152 27.8203 39.7301 27.6328 39.1207 27.4375C38.5113 27.2383 38.0289 27.043 37.6734 26.8516C36.7047 26.3281 36.2203 25.623 36.2203 24.7363C36.2203 24.2754 36.3492 23.8652 36.607 23.5059C36.8688 23.1426 37.2418 22.8594 37.7262 22.6562C38.2145 22.4531 38.7613 22.3516 39.3668 22.3516C39.9762 22.3516 40.5191 22.4629 40.9957 22.6855C41.4723 22.9043 41.8414 23.2148 42.1031 23.6172C42.3688 24.0195 42.5016 24.4766 42.5016 24.9883H40.7438C40.7438 24.5977 40.6207 24.2949 40.3746 24.0801C40.1285 23.8613 39.7828 23.752 39.3375 23.752C38.9078 23.752 38.5738 23.8438 38.3355 24.0273C38.0973 24.207 37.9781 24.4453 37.9781 24.7422C37.9781 25.0195 38.1168 25.252 38.3941 25.4395C38.6754 25.627 39.0875 25.8027 39.6305 25.9668C40.6305 26.2676 41.359 26.6406 41.816 27.0859C42.273 27.5312 42.5016 28.0859 42.5016 28.75C42.5016 29.4883 42.2223 30.0684 41.6637 30.4902C41.1051 30.9082 40.3531 31.1172 39.4078 31.1172C38.7516 31.1172 38.1539 30.998 37.6148 30.7598C37.0758 30.5176 36.6637 30.1875 36.3785 29.7695C36.0973 29.3516 35.9566 28.8672 35.9566 28.3164H37.7203C37.7203 29.2578 38.2828 29.7285 39.4078 29.7285C39.8258 29.7285 40.152 29.6445 40.3863 29.4766C40.6207 29.3047 40.7379 29.0664 40.7379 28.7617ZM47.4094 31C47.3312 30.8477 47.2746 30.6582 47.2395 30.4316C46.8293 30.8887 46.2961 31.1172 45.6398 31.1172C45.0187 31.1172 44.5031 30.9375 44.093 30.5781C43.6867 30.2188 43.4836 29.7656 43.4836 29.2188C43.4836 28.5469 43.7316 28.0312 44.2277 27.6719C44.7277 27.3125 45.4484 27.1309 46.3898 27.127H47.1691V26.7637C47.1691 26.4707 47.093 26.2363 46.9406 26.0605C46.7922 25.8848 46.5559 25.7969 46.2316 25.7969C45.9465 25.7969 45.7219 25.8652 45.5578 26.002C45.3977 26.1387 45.3176 26.3262 45.3176 26.5645H43.6242C43.6242 26.1973 43.7375 25.8574 43.9641 25.5449C44.1906 25.2324 44.5109 24.9883 44.925 24.8125C45.3391 24.6328 45.8039 24.543 46.3195 24.543C47.1008 24.543 47.7199 24.7402 48.177 25.1348C48.6379 25.5254 48.8684 26.0762 48.8684 26.7871V29.5352C48.8723 30.1367 48.9562 30.5918 49.1203 30.9004V31H47.4094ZM46.009 29.8223C46.259 29.8223 46.4895 29.7676 46.7004 29.6582C46.9113 29.5449 47.0676 29.3945 47.1691 29.207V28.1172H46.5363C45.6887 28.1172 45.2375 28.4102 45.1828 28.9961L45.177 29.0957C45.177 29.3066 45.2512 29.4805 45.3996 29.6172C45.548 29.7539 45.7512 29.8223 46.009 29.8223ZM52.3465 23.1016V24.6602H53.4305V25.9023H52.3465V29.0664C52.3465 29.3008 52.3914 29.4688 52.4813 29.5703C52.5711 29.6719 52.743 29.7227 52.9969 29.7227C53.1844 29.7227 53.3504 29.709 53.4949 29.6816V30.9648C53.1629 31.0664 52.8211 31.1172 52.4695 31.1172C51.282 31.1172 50.6766 30.5176 50.6531 29.3184V25.9023H49.7273V24.6602H50.6531V23.1016H52.3465ZM54.6059 30.168C54.6059 29.8984 54.6957 29.6797 54.8754 29.5117C55.059 29.3438 55.2875 29.2598 55.5609 29.2598C55.8383 29.2598 56.0668 29.3438 56.2465 29.5117C56.4301 29.6797 56.5219 29.8984 56.5219 30.168C56.5219 30.4336 56.432 30.6504 56.2523 30.8184C56.0727 30.9824 55.8422 31.0645 55.5609 31.0645C55.2836 31.0645 55.0551 30.9824 54.8754 30.8184C54.6957 30.6504 54.6059 30.4336 54.6059 30.168ZM54.6059 25.3691C54.6059 25.0996 54.6957 24.8809 54.8754 24.7129C55.059 24.5449 55.2875 24.4609 55.5609 24.4609C55.8383 24.4609 56.0668 24.5449 56.2465 24.7129C56.4301 24.8809 56.5219 25.0996 56.5219 25.3691C56.5219 25.6348 56.432 25.8516 56.2523 26.0195C56.0727 26.1836 55.8422 26.2656 55.5609 26.2656C55.2836 26.2656 55.0551 26.1836 54.8754 26.0195C54.6957 25.8516 54.6059 25.6348 54.6059 25.3691ZM66.9293 23.418L63.6305 31H61.8434L65.148 23.8398H60.9059V22.4688H66.9293V23.418ZM68.3215 30.168C68.3215 29.8984 68.4113 29.6797 68.591 29.5117C68.7746 29.3438 69.0031 29.2598 69.2766 29.2598C69.5539 29.2598 69.7824 29.3438 69.9621 29.5117C70.1457 29.6797 70.2375 29.8984 70.2375 30.168C70.2375 30.4336 70.1477 30.6504 69.968 30.8184C69.7883 30.9824 69.5578 31.0645 69.2766 31.0645C68.9992 31.0645 68.7707 30.9824 68.591 30.8184C68.4113 30.6504 68.3215 30.4336 68.3215 30.168ZM68.3215 25.3691C68.3215 25.0996 68.4113 24.8809 68.591 24.7129C68.7746 24.5449 69.0031 24.4609 69.2766 24.4609C69.5539 24.4609 69.7824 24.5449 69.9621 24.7129C70.1457 24.8809 70.2375 25.0996 70.2375 25.3691C70.2375 25.6348 70.1477 25.8516 69.968 26.0195C69.7883 26.1836 69.5578 26.2656 69.2766 26.2656C68.9992 26.2656 68.7707 26.1836 68.591 26.0195C68.4113 25.8516 68.3215 25.6348 68.3215 25.3691ZM77.448 27.4727C77.448 28.6523 77.2039 29.5547 76.7156 30.1797C76.2273 30.8047 75.5125 31.1172 74.5711 31.1172C73.6414 31.1172 72.9305 30.8105 72.4383 30.1973C71.9461 29.584 71.6941 28.7051 71.6824 27.5605V25.9902C71.6824 24.7988 71.9285 23.8945 72.4207 23.2773C72.9168 22.6602 73.6297 22.3516 74.5594 22.3516C75.4891 22.3516 76.2 22.6582 76.6922 23.2715C77.1844 23.8809 77.4363 24.7578 77.448 25.9023V27.4727ZM75.7547 25.75C75.7547 25.043 75.657 24.5293 75.4617 24.209C75.2703 23.8848 74.9695 23.7227 74.5594 23.7227C74.1609 23.7227 73.866 23.877 73.6746 24.1855C73.4871 24.4902 73.3875 24.9688 73.3758 25.6211V27.6953C73.3758 28.3906 73.4695 28.9082 73.657 29.248C73.8484 29.584 74.1531 29.752 74.5711 29.752C74.9852 29.752 75.284 29.5898 75.4676 29.2656C75.6512 28.9414 75.7469 28.4453 75.7547 27.7773V25.75ZM84.4887 27.4727C84.4887 28.6523 84.2445 29.5547 83.7562 30.1797C83.268 30.8047 82.5531 31.1172 81.6117 31.1172C80.682 31.1172 79.9711 30.8105 79.4789 30.1973C78.9867 29.584 78.7348 28.7051 78.723 27.5605V25.9902C78.723 24.7988 78.9691 23.8945 79.4613 23.2773C79.9574 22.6602 80.6703 22.3516 81.6 22.3516C82.5297 22.3516 83.2406 22.6582 83.7328 23.2715C84.225 23.8809 84.477 24.7578 84.4887 25.9023V27.4727ZM82.7953 25.75C82.7953 25.043 82.6977 24.5293 82.5023 24.209C82.3109 23.8848 82.0102 23.7227 81.6 23.7227C81.2016 23.7227 80.9066 23.877 80.7152 24.1855C80.5277 24.4902 80.4281 24.9688 80.4164 25.6211V27.6953C80.4164 28.3906 80.5102 28.9082 80.6977 29.248C80.8891 29.584 81.1937 29.752 81.6117 29.752C82.0258 29.752 82.3246 29.5898 82.5082 29.2656C82.6918 28.9414 82.7875 28.4453 82.7953 27.7773V25.75ZM92.6695 31C92.5914 30.8477 92.5348 30.6582 92.4996 30.4316C92.0895 30.8887 91.5563 31.1172 90.9 31.1172C90.2789 31.1172 89.7633 30.9375 89.3531 30.5781C88.9469 30.2188 88.7438 29.7656 88.7438 29.2188C88.7438 28.5469 88.9918 28.0312 89.4879 27.6719C89.9879 27.3125 90.7086 27.1309 91.65 27.127H92.4293V26.7637C92.4293 26.4707 92.3531 26.2363 92.2008 26.0605C92.0523 25.8848 91.816 25.7969 91.4918 25.7969C91.2066 25.7969 90.982 25.8652 90.818 26.002C90.6578 26.1387 90.5777 26.3262 90.5777 26.5645H88.8844C88.8844 26.1973 88.9977 25.8574 89.2242 25.5449C89.4508 25.2324 89.7711 24.9883 90.1852 24.8125C90.5992 24.6328 91.0641 24.543 91.5797 24.543C92.3609 24.543 92.9801 24.7402 93.4371 25.1348C93.898 25.5254 94.1285 26.0762 94.1285 26.7871V29.5352C94.1324 30.1367 94.2164 30.5918 94.3805 30.9004V31H92.6695ZM91.2691 29.8223C91.5191 29.8223 91.7496 29.7676 91.9605 29.6582C92.1715 29.5449 92.3277 29.3945 92.4293 29.207V28.1172H91.7965C90.9488 28.1172 90.4977 28.4102 90.443 28.9961L90.4371 29.0957C90.4371 29.3066 90.5113 29.4805 90.6598 29.6172C90.8082 29.7539 91.0113 29.8223 91.2691 29.8223ZM97.1672 24.6602L97.2199 25.3691C97.6691 24.8184 98.2766 24.543 99.0422 24.543C99.8586 24.543 100.419 24.8652 100.724 25.5098C101.169 24.8652 101.804 24.543 102.628 24.543C103.316 24.543 103.827 24.7441 104.163 25.1465C104.499 25.5449 104.667 26.1465 104.667 26.9512V31H102.968V26.957C102.968 26.5977 102.898 26.3359 102.757 26.1719C102.616 26.0039 102.368 25.9199 102.013 25.9199C101.505 25.9199 101.154 26.1621 100.958 26.6465L100.964 31H99.2707V26.9629C99.2707 26.5957 99.1984 26.3301 99.0539 26.166C98.9094 26.002 98.6633 25.9199 98.3156 25.9199C97.8352 25.9199 97.4875 26.1191 97.2727 26.5176V31H95.5793V24.6602H97.1672ZM112.555 28.0293H109.256V26.6641H112.555V28.0293ZM121.726 22.3809V23.7754H121.562C120.796 23.7871 120.179 23.9863 119.711 24.373C119.246 24.7598 118.966 25.2969 118.873 25.9844C119.326 25.5234 119.898 25.293 120.589 25.293C121.332 25.293 121.921 25.5586 122.359 26.0898C122.796 26.6211 123.015 27.3203 123.015 28.1875C123.015 28.7422 122.894 29.2441 122.652 29.6934C122.414 30.1426 122.074 30.4922 121.632 30.7422C121.195 30.9922 120.699 31.1172 120.144 31.1172C119.246 31.1172 118.519 30.8047 117.964 30.1797C117.414 29.5547 117.138 28.7207 117.138 27.6777V27.0684C117.138 26.1426 117.312 25.3262 117.66 24.6191C118.011 23.9082 118.513 23.3594 119.166 22.9727C119.822 22.582 120.582 22.3848 121.445 22.3809H121.726ZM120.074 26.6523C119.8 26.6523 119.552 26.7246 119.33 26.8691C119.107 27.0098 118.943 27.1973 118.838 27.4316V27.9473C118.838 28.5137 118.949 28.957 119.171 29.2773C119.394 29.5938 119.707 29.752 120.109 29.752C120.472 29.752 120.765 29.6094 120.988 29.3242C121.214 29.0352 121.328 28.6621 121.328 28.2051C121.328 27.7402 121.214 27.3652 120.988 27.0801C120.761 26.7949 120.457 26.6523 120.074 26.6523ZM124.325 30.168C124.325 29.8984 124.415 29.6797 124.595 29.5117C124.779 29.3438 125.007 29.2598 125.28 29.2598C125.558 29.2598 125.786 29.3438 125.966 29.5117C126.15 29.6797 126.241 29.8984 126.241 30.168C126.241 30.4336 126.152 30.6504 125.972 30.8184C125.792 30.9824 125.562 31.0645 125.28 31.0645C125.003 31.0645 124.775 30.9824 124.595 30.8184C124.415 30.6504 124.325 30.4336 124.325 30.168ZM124.325 25.3691C124.325 25.0996 124.415 24.8809 124.595 24.7129C124.779 24.5449 125.007 24.4609 125.28 24.4609C125.558 24.4609 125.786 24.5449 125.966 24.7129C126.15 24.8809 126.241 25.0996 126.241 25.3691C126.241 25.6348 126.152 25.8516 125.972 26.0195C125.792 26.1836 125.562 26.2656 125.28 26.2656C125.003 26.2656 124.775 26.1836 124.595 26.0195C124.415 25.8516 124.325 25.6348 124.325 25.3691ZM133.452 27.4727C133.452 28.6523 133.208 29.5547 132.72 30.1797C132.231 30.8047 131.516 31.1172 130.575 31.1172C129.645 31.1172 128.934 30.8105 128.442 30.1973C127.95 29.584 127.698 28.7051 127.686 27.5605V25.9902C127.686 24.7988 127.932 23.8945 128.425 23.2773C128.921 22.6602 129.634 22.3516 130.563 22.3516C131.493 22.3516 132.204 22.6582 132.696 23.2715C133.188 23.8809 133.44 24.7578 133.452 25.9023V27.4727ZM131.759 25.75C131.759 25.043 131.661 24.5293 131.466 24.209C131.274 23.8848 130.973 23.7227 130.563 23.7227C130.165 23.7227 129.87 23.877 129.679 24.1855C129.491 24.4902 129.391 24.9688 129.38 25.6211V27.6953C129.38 28.3906 129.473 28.9082 129.661 29.248C129.852 29.584 130.157 29.752 130.575 29.752C130.989 29.752 131.288 29.5898 131.471 29.2656C131.655 28.9414 131.751 28.4453 131.759 27.7773V25.75ZM140.493 27.4727C140.493 28.6523 140.248 29.5547 139.76 30.1797C139.272 30.8047 138.557 31.1172 137.616 31.1172C136.686 31.1172 135.975 30.8105 135.483 30.1973C134.991 29.584 134.739 28.7051 134.727 27.5605V25.9902C134.727 24.7988 134.973 23.8945 135.465 23.2773C135.961 22.6602 136.674 22.3516 137.604 22.3516C138.534 22.3516 139.245 22.6582 139.737 23.2715C140.229 23.8809 140.481 24.7578 140.493 25.9023V27.4727ZM138.799 25.75C138.799 25.043 138.702 24.5293 138.506 24.209C138.315 23.8848 138.014 23.7227 137.604 23.7227C137.205 23.7227 136.911 23.877 136.719 24.1855C136.532 24.4902 136.432 24.9688 136.42 25.6211V27.6953C136.42 28.3906 136.514 28.9082 136.702 29.248C136.893 29.584 137.198 29.752 137.616 29.752C138.03 29.752 138.329 29.5898 138.512 29.2656C138.696 28.9414 138.791 28.4453 138.799 27.7773V25.75ZM150.707 27.8887C150.707 28.8652 150.484 29.6484 150.039 30.2383C149.597 30.8242 149 31.1172 148.246 31.1172C147.605 31.1172 147.087 30.8945 146.693 30.4492V33.4375H145V24.6602H146.57L146.629 25.2812C147.039 24.7891 147.574 24.543 148.234 24.543C149.015 24.543 149.623 24.832 150.056 25.4102C150.49 25.9883 150.707 26.7852 150.707 27.8008V27.8887ZM149.013 27.7656C149.013 27.1758 148.908 26.7207 148.697 26.4004C148.49 26.0801 148.187 25.9199 147.789 25.9199C147.257 25.9199 146.892 26.123 146.693 26.5293V29.125C146.9 29.543 147.269 29.752 147.8 29.752C148.609 29.752 149.013 29.0898 149.013 27.7656ZM153.499 24.6602L153.552 25.3691C154.001 24.8184 154.609 24.543 155.374 24.543C156.191 24.543 156.751 24.8652 157.056 25.5098C157.501 24.8652 158.136 24.543 158.96 24.543C159.648 24.543 160.159 24.7441 160.495 25.1465C160.831 25.5449 160.999 26.1465 160.999 26.9512V31H159.3V26.957C159.3 26.5977 159.23 26.3359 159.089 26.1719C158.948 26.0039 158.7 25.9199 158.345 25.9199C157.837 25.9199 157.486 26.1621 157.29 26.6465L157.296 31H155.603V26.9629C155.603 26.5957 155.53 26.3301 155.386 26.166C155.241 26.002 154.995 25.9199 154.648 25.9199C154.167 25.9199 153.82 26.1191 153.605 26.5176V31H151.911V24.6602H153.499Z" fill="white"/>
</svg>
