<svg width="90" height="34" viewBox="0 0 90 34" fill="none" xmlns="http://www.w3.org/2000/svg">
<path d="M7.37695 6.22266C7.29102 7.13281 6.95508 7.84375 6.36914 8.35547C5.7832 8.86328 5.00391 9.11719 4.03125 9.11719C3.35156 9.11719 2.75195 8.95703 2.23242 8.63672C1.7168 8.3125 1.31836 7.85352 1.03711 7.25977C0.755859 6.66602 0.609375 5.97656 0.597656 5.19141V4.39453C0.597656 3.58984 0.740234 2.88086 1.02539 2.26758C1.31055 1.6543 1.71875 1.18164 2.25 0.849609C2.78516 0.517578 3.40234 0.351562 4.10156 0.351562C5.04297 0.351562 5.80078 0.607422 6.375 1.11914C6.94922 1.63086 7.2832 2.35352 7.37695 3.28711H5.90039C5.83008 2.67383 5.65039 2.23242 5.36133 1.96289C5.07617 1.68945 4.65625 1.55273 4.10156 1.55273C3.45703 1.55273 2.96094 1.78906 2.61328 2.26172C2.26953 2.73047 2.09375 3.41992 2.08594 4.33008V5.08594C2.08594 6.00781 2.25 6.71094 2.57812 7.19531C2.91016 7.67969 3.39453 7.92188 4.03125 7.92188C4.61328 7.92188 5.05078 7.79102 5.34375 7.5293C5.63672 7.26758 5.82227 6.83203 5.90039 6.22266H7.37695ZM13.6324 7.01367H10.3277L9.63633 9H8.09531L11.318 0.46875H12.648L15.8766 9H14.3297L13.6324 7.01367ZM10.7438 5.81836H13.2164L11.9801 2.2793L10.7438 5.81836ZM18.4816 7.81641H22.3547V9H16.9992V0.46875H18.4816V7.81641ZM25.1238 7.81641H28.9969V9H23.6414V0.46875H25.1238V7.81641ZM39.6621 0.46875V6.16992C39.6621 7.07617 39.3711 7.79492 38.7891 8.32617C38.2109 8.85352 37.4395 9.11719 36.4746 9.11719C35.498 9.11719 34.7227 8.85742 34.1484 8.33789C33.5742 7.81445 33.2871 7.08984 33.2871 6.16406V0.46875H34.7637V6.17578C34.7637 6.74609 34.9082 7.18164 35.1973 7.48242C35.4863 7.7832 35.9121 7.93359 36.4746 7.93359C37.6152 7.93359 38.1855 7.33203 38.1855 6.12891V0.46875H39.6621ZM45.859 6.80273C45.859 6.42773 45.7262 6.13867 45.4605 5.93555C45.1988 5.73242 44.7242 5.52734 44.0367 5.32031C43.3492 5.11328 42.8023 4.88281 42.3961 4.62891C41.6188 4.14062 41.2301 3.50391 41.2301 2.71875C41.2301 2.03125 41.5094 1.46484 42.068 1.01953C42.6305 0.574219 43.359 0.351562 44.2535 0.351562C44.8473 0.351562 45.3766 0.460938 45.8414 0.679688C46.3063 0.898438 46.6715 1.21094 46.9371 1.61719C47.2027 2.01953 47.3355 2.4668 47.3355 2.95898H45.859C45.859 2.51367 45.7184 2.16602 45.4371 1.91602C45.1598 1.66211 44.7613 1.53516 44.2418 1.53516C43.7574 1.53516 43.3805 1.63867 43.1109 1.8457C42.8453 2.05273 42.7125 2.3418 42.7125 2.71289C42.7125 3.02539 42.857 3.28711 43.1461 3.49805C43.4352 3.70508 43.9117 3.9082 44.5758 4.10742C45.2398 4.30273 45.773 4.52734 46.1754 4.78125C46.5777 5.03125 46.8727 5.32031 47.0602 5.64844C47.2477 5.97266 47.3414 6.35352 47.3414 6.79102C47.3414 7.50195 47.068 8.06836 46.5211 8.49023C45.9781 8.9082 45.2398 9.11719 44.3063 9.11719C43.6891 9.11719 43.1207 9.00391 42.6012 8.77734C42.0855 8.54688 41.6832 8.23047 41.3941 7.82812C41.109 7.42578 40.9664 6.95703 40.9664 6.42188H42.4488C42.4488 6.90625 42.609 7.28125 42.9293 7.54688C43.2496 7.8125 43.7086 7.94531 44.3063 7.94531C44.8219 7.94531 45.2086 7.8418 45.4664 7.63477C45.7281 7.42383 45.859 7.14648 45.859 6.80273ZM0.75 27.5312C0.75 26.6289 0.871094 25.7734 1.11328 24.9648C1.35547 24.1523 1.71094 23.4277 2.17969 22.791C2.64844 22.1504 3.14453 21.7012 3.66797 21.4434L3.94922 22.2754C3.39844 22.6934 2.95117 23.332 2.60742 24.1914C2.26758 25.0469 2.08203 26.0273 2.05078 27.1328L2.04492 27.6367C2.04492 28.8203 2.21094 29.877 2.54297 30.8066C2.87891 31.7324 3.34766 32.4375 3.94922 32.9219L3.66797 33.7129C3.14453 33.4551 2.64648 33.0039 2.17383 32.3594C1.70508 31.7188 1.34961 30.9961 1.10742 30.1914C0.869141 29.3828 0.75 28.4961 0.75 27.5312ZM5.35313 26.7695L5.81602 22.4688H10.398V23.6992H6.99961L6.76523 25.7383C7.15977 25.5117 7.60508 25.3984 8.10117 25.3984C8.91367 25.3984 9.54453 25.6582 9.99375 26.1777C10.4469 26.6973 10.6734 27.3965 10.6734 28.2754C10.6734 29.1426 10.4234 29.834 9.92344 30.3496C9.42344 30.8613 8.73789 31.1172 7.8668 31.1172C7.08555 31.1172 6.43711 30.8965 5.92148 30.4551C5.40977 30.0098 5.13242 29.4238 5.08945 28.6973H6.46641C6.52109 29.1113 6.66953 29.4297 6.91172 29.6523C7.15391 29.8711 7.47031 29.9805 7.86094 29.9805C8.29844 29.9805 8.63828 29.8242 8.88047 29.5117C9.12656 29.1992 9.24961 28.7734 9.24961 28.2344C9.24961 27.7148 9.11484 27.3047 8.84531 27.0039C8.57578 26.6992 8.20469 26.5469 7.73203 26.5469C7.47422 26.5469 7.25547 26.582 7.07578 26.6523C6.89609 26.7188 6.70078 26.8516 6.48984 27.0508L5.35313 26.7695ZM12.3234 26.7695L12.7863 22.4688H17.3684V23.6992H13.9699L13.7355 25.7383C14.1301 25.5117 14.5754 25.3984 15.0715 25.3984C15.884 25.3984 16.5148 25.6582 16.9641 26.1777C17.4172 26.6973 17.6438 27.3965 17.6438 28.2754C17.6438 29.1426 17.3938 29.834 16.8938 30.3496C16.3938 30.8613 15.7082 31.1172 14.8371 31.1172C14.0559 31.1172 13.4074 30.8965 12.8918 30.4551C12.3801 30.0098 12.1027 29.4238 12.0598 28.6973H13.4367C13.4914 29.1113 13.6398 29.4297 13.882 29.6523C14.1242 29.8711 14.4406 29.9805 14.8313 29.9805C15.2688 29.9805 15.6086 29.8242 15.8508 29.5117C16.0969 29.1992 16.2199 28.7734 16.2199 28.2344C16.2199 27.7148 16.0852 27.3047 15.8156 27.0039C15.5461 26.6992 15.175 26.5469 14.7023 26.5469C14.4445 26.5469 14.2258 26.582 14.0461 26.6523C13.8664 26.7188 13.6711 26.8516 13.4602 27.0508L12.3234 26.7695ZM19.2938 26.7695L19.7566 22.4688H24.3387V23.6992H20.9402L20.7059 25.7383C21.1004 25.5117 21.5457 25.3984 22.0418 25.3984C22.8543 25.3984 23.4852 25.6582 23.9344 26.1777C24.3875 26.6973 24.6141 27.3965 24.6141 28.2754C24.6141 29.1426 24.3641 29.834 23.8641 30.3496C23.3641 30.8613 22.6785 31.1172 21.8074 31.1172C21.0262 31.1172 20.3777 30.8965 19.8621 30.4551C19.3504 30.0098 19.073 29.4238 19.0301 28.6973H20.407C20.4617 29.1113 20.6102 29.4297 20.8523 29.6523C21.0945 29.8711 21.4109 29.9805 21.8016 29.9805C22.2391 29.9805 22.5789 29.8242 22.8211 29.5117C23.0672 29.1992 23.1902 28.7734 23.1902 28.2344C23.1902 27.7148 23.0555 27.3047 22.7859 27.0039C22.5164 26.6992 22.1453 26.5469 21.6727 26.5469C21.4148 26.5469 21.1961 26.582 21.0164 26.6523C20.8367 26.7188 20.6414 26.8516 20.4305 27.0508L19.2938 26.7695ZM28.7191 27.625C28.7191 28.4922 28.6 29.3301 28.3617 30.1387C28.1234 30.9434 27.7621 31.6758 27.2777 32.3359C26.7934 33 26.2875 33.459 25.7602 33.7129L25.4789 32.9219C26.0648 32.4688 26.5277 31.7773 26.8676 30.8477C27.2113 29.9141 27.3832 28.8496 27.3832 27.6543V27.5195C27.3832 26.4336 27.2348 25.4453 26.9379 24.5547C26.641 23.6602 26.2152 22.9434 25.6605 22.4043L25.4789 22.2402L25.7602 21.4434C26.2602 21.6855 26.7445 22.1152 27.2133 22.7324C27.682 23.3496 28.0414 24.041 28.2914 24.8066C28.5414 25.5684 28.682 26.3555 28.7133 27.168L28.7191 27.625ZM35.1129 27.8301V31H33.6305V22.4688H36.8941C37.8473 22.4688 38.6031 22.7168 39.1617 23.2129C39.7242 23.709 40.0055 24.3652 40.0055 25.1816C40.0055 26.0176 39.7301 26.668 39.1793 27.1328C38.6324 27.5977 37.8648 27.8301 36.8766 27.8301H35.1129ZM35.1129 26.6406H36.8941C37.4215 26.6406 37.8238 26.5176 38.1012 26.2715C38.3785 26.0215 38.5172 25.6621 38.5172 25.1934C38.5172 24.7324 38.3766 24.3652 38.0953 24.0918C37.8141 23.8145 37.4273 23.6719 36.9352 23.6641H35.1129V26.6406ZM45.1594 30.3789C44.7414 30.8711 44.1477 31.1172 43.3781 31.1172C42.6906 31.1172 42.1691 30.916 41.8137 30.5137C41.4621 30.1113 41.2863 29.5293 41.2863 28.7676V24.6602H42.7102V28.75C42.7102 29.5547 43.0441 29.957 43.7121 29.957C44.4035 29.957 44.8703 29.709 45.1125 29.2129V24.6602H46.5363V31H45.1945L45.1594 30.3789ZM53.6883 27.8945C53.6883 28.875 53.4656 29.6582 53.0203 30.2441C52.575 30.8262 51.9773 31.1172 51.2273 31.1172C50.532 31.1172 49.9754 30.8887 49.5574 30.4316V33.4375H48.1336V24.6602H49.4461L49.5047 25.3047C49.9227 24.7969 50.491 24.543 51.2098 24.543C51.9832 24.543 52.5887 24.832 53.0262 25.4102C53.4676 25.9844 53.6883 26.7832 53.6883 27.8066V27.8945ZM52.2703 27.7715C52.2703 27.1387 52.1434 26.6367 51.8895 26.2656C51.6395 25.8945 51.2801 25.709 50.8113 25.709C50.2293 25.709 49.8113 25.9492 49.5574 26.4297V29.2422C49.8152 29.7344 50.2371 29.9805 50.823 29.9805C51.2762 29.9805 51.6297 29.7988 51.8836 29.4355C52.1414 29.0684 52.2703 28.5137 52.2703 27.7715ZM57.8109 27.9473H54.7348V26.7988H57.8109V27.9473ZM65.7832 28.2227C65.6973 29.1328 65.3613 29.8438 64.7754 30.3555C64.1895 30.8633 63.4102 31.1172 62.4375 31.1172C61.7578 31.1172 61.1582 30.957 60.6387 30.6367C60.123 30.3125 59.7246 29.8535 59.4434 29.2598C59.1621 28.666 59.0156 27.9766 59.0039 27.1914V26.3945C59.0039 25.5898 59.1465 24.8809 59.4316 24.2676C59.7168 23.6543 60.125 23.1816 60.6562 22.8496C61.1914 22.5176 61.8086 22.3516 62.5078 22.3516C63.4492 22.3516 64.207 22.6074 64.7812 23.1191C65.3555 23.6309 65.6895 24.3535 65.7832 25.2871H64.3066C64.2363 24.6738 64.0566 24.2324 63.7676 23.9629C63.4824 23.6895 63.0625 23.5527 62.5078 23.5527C61.8633 23.5527 61.3672 23.7891 61.0195 24.2617C60.6758 24.7305 60.5 25.4199 60.4922 26.3301V27.0859C60.4922 28.0078 60.6562 28.7109 60.9844 29.1953C61.3164 29.6797 61.8008 29.9219 62.4375 29.9219C63.0195 29.9219 63.457 29.791 63.75 29.5293C64.043 29.2676 64.2285 28.832 64.3066 28.2227H65.7832ZM70.9137 31C70.8512 30.8789 70.7965 30.6816 70.7496 30.4082C70.2965 30.8809 69.7418 31.1172 69.0855 31.1172C68.4488 31.1172 67.9293 30.9355 67.527 30.5723C67.1246 30.209 66.9234 29.7598 66.9234 29.2246C66.9234 28.5488 67.1734 28.0312 67.6734 27.6719C68.1773 27.3086 68.8961 27.127 69.8297 27.127H70.7027V26.7109C70.7027 26.3828 70.6109 26.1211 70.4273 25.9258C70.2438 25.7266 69.9645 25.627 69.5895 25.627C69.2652 25.627 68.9996 25.709 68.7926 25.873C68.5855 26.0332 68.482 26.2383 68.482 26.4883H67.0582C67.0582 26.1406 67.1734 25.8164 67.4039 25.5156C67.6344 25.2109 67.9469 24.9727 68.3414 24.8008C68.7398 24.6289 69.1832 24.543 69.6715 24.543C70.4137 24.543 71.0055 24.7305 71.4469 25.1055C71.8883 25.4766 72.1148 26 72.1266 26.6758V29.5352C72.1266 30.1055 72.2066 30.5605 72.3668 30.9004V31H70.9137ZM69.3492 29.9746C69.6305 29.9746 69.8941 29.9062 70.1402 29.7695C70.3902 29.6328 70.5777 29.4492 70.7027 29.2188V28.0234H69.9352C69.4078 28.0234 69.0113 28.1152 68.7457 28.2988C68.4801 28.4824 68.3473 28.7422 68.3473 29.0781C68.3473 29.3516 68.4371 29.5703 68.6168 29.7344C68.8004 29.8945 69.0445 29.9746 69.3492 29.9746ZM77.0871 25.9609C76.8996 25.9297 76.7063 25.9141 76.507 25.9141C75.8547 25.9141 75.4152 26.1641 75.1887 26.6641V31H73.7648V24.6602H75.1242L75.1594 25.3691C75.5031 24.8184 75.9797 24.543 76.5891 24.543C76.7922 24.543 76.9602 24.5703 77.093 24.625L77.0871 25.9609ZM80.8113 31.1172C79.909 31.1172 79.1766 30.834 78.6141 30.2676C78.0555 29.6973 77.7762 28.9395 77.7762 27.9941V27.8184C77.7762 27.1855 77.8973 26.6211 78.1395 26.125C78.3855 25.625 78.7293 25.2363 79.1707 24.959C79.6121 24.6816 80.1043 24.543 80.6473 24.543C81.5105 24.543 82.1766 24.8184 82.6453 25.3691C83.118 25.9199 83.3543 26.6992 83.3543 27.707V28.2812H79.2117C79.2547 28.8047 79.4285 29.2188 79.7332 29.5234C80.0418 29.8281 80.4285 29.9805 80.8934 29.9805C81.5457 29.9805 82.077 29.7168 82.4871 29.1895L83.2547 29.9219C83.0008 30.3008 82.6609 30.5957 82.2352 30.8066C81.8133 31.0137 81.3387 31.1172 80.8113 31.1172ZM80.6414 25.6855C80.2508 25.6855 79.9344 25.8223 79.6922 26.0957C79.4539 26.3691 79.3016 26.75 79.2352 27.2383H81.948V27.1328C81.9168 26.6562 81.7898 26.2969 81.5672 26.0547C81.3445 25.8086 81.0359 25.6855 80.6414 25.6855ZM88.1684 29.2773C88.1684 29.0234 88.0629 28.8301 87.852 28.6973C87.6449 28.5645 87.2992 28.4473 86.8148 28.3457C86.3305 28.2441 85.9262 28.1152 85.602 27.959C84.891 27.6152 84.5355 27.1172 84.5355 26.4648C84.5355 25.918 84.766 25.4609 85.227 25.0938C85.6879 24.7266 86.2738 24.543 86.9848 24.543C87.7426 24.543 88.3539 24.7305 88.8187 25.1055C89.2875 25.4805 89.5219 25.9668 89.5219 26.5645H88.098C88.098 26.291 87.9965 26.0645 87.7934 25.8848C87.5902 25.7012 87.3207 25.6094 86.9848 25.6094C86.6723 25.6094 86.4164 25.6816 86.2172 25.8262C86.0219 25.9707 85.9242 26.1641 85.9242 26.4062C85.9242 26.625 86.016 26.7949 86.1996 26.916C86.3832 27.0371 86.7543 27.1602 87.3129 27.2852C87.8715 27.4062 88.309 27.5527 88.6254 27.7246C88.9457 27.8926 89.182 28.0957 89.3344 28.334C89.4906 28.5723 89.5687 28.8613 89.5687 29.2012C89.5687 29.7715 89.3324 30.2344 88.8598 30.5898C88.3871 30.9414 87.768 31.1172 87.0023 31.1172C86.4828 31.1172 86.0199 31.0234 85.6137 30.8359C85.2074 30.6484 84.891 30.3906 84.6645 30.0625C84.4379 29.7344 84.3246 29.3809 84.3246 29.002H85.7074C85.727 29.3379 85.8539 29.5977 86.0883 29.7812C86.3227 29.9609 86.6332 30.0508 87.0199 30.0508C87.3949 30.0508 87.6801 29.9805 87.8754 29.8398C88.0707 29.6953 88.1684 29.5078 88.1684 29.2773Z" fill="white"/>
</svg>
