<svg width="182" height="49" viewBox="0 0 182 49" fill="none" xmlns="http://www.w3.org/2000/svg">
<g filter="url(#filter0_dd_926_411)">
<path d="M54.3921 11.5514H58.7869V29.8887H54.3921V11.5514ZM60.5302 22.965C60.5302 18.4298 63.2256 15.7238 67.3861 15.7238C71.5465 15.7238 74.2419 18.4298 74.2419 22.965C74.2419 27.5002 71.6051 30.2213 67.3861 30.2213C63.167 30.2213 60.5302 27.5757 60.5302 22.965ZM69.8325 22.965C69.8325 20.4706 68.8803 19.0042 67.3861 19.0042C65.8918 19.0042 64.9543 20.5159 64.9543 22.965C64.9543 25.414 65.8772 26.8955 67.3861 26.8955C68.8949 26.8955 69.8325 25.5047 69.8325 22.9801V22.965ZM75.8973 30.7806H80.1163C80.3171 31.2409 80.6566 31.6221 81.0842 31.8672C81.5118 32.1124 82.0047 32.2085 82.4895 32.1412C84.1596 32.1412 85.0385 31.2039 85.0385 29.8433V27.3036H84.9506C84.6005 28.082 84.0323 28.7343 83.3194 29.1762C82.6066 29.6181 81.7817 29.8294 80.9514 29.7829C77.7431 29.7829 75.619 27.2583 75.619 22.9196C75.619 18.5809 77.6406 15.8447 81.0099 15.8447C81.8663 15.81 82.7125 16.0463 83.4352 16.5218C84.1578 16.9974 84.7224 17.6894 85.0532 18.5053V18.5053V15.9807H89.448V29.7375C89.448 33.0482 86.6206 35.1042 82.4456 35.1042C78.5635 35.1042 76.1464 33.3052 75.8973 30.7957V30.7806ZM85.0532 22.9498C85.0532 20.7427 84.0717 19.3519 82.5188 19.3519C80.966 19.3519 80.0138 20.7276 80.0138 22.9498C80.0138 25.1721 80.9514 26.4268 82.5188 26.4268C84.0863 26.4268 85.0532 25.2023 85.0532 22.965V22.9498ZM91.1033 22.9498C91.1033 18.4146 93.7988 15.7086 97.9592 15.7086C102.12 15.7086 104.83 18.4146 104.83 22.9498C104.83 27.485 102.193 30.2062 97.9592 30.2062C93.7256 30.2062 91.1033 27.5757 91.1033 22.965V22.9498ZM100.406 22.9498C100.406 20.4555 99.4535 18.9891 97.9592 18.9891C96.465 18.9891 95.6007 20.5159 95.6007 22.9801C95.6007 25.4442 96.5236 26.9106 98.0178 26.9106C99.5121 26.9106 100.406 25.5047 100.406 22.9801V22.9498ZM106.5 12.6852C106.488 12.2273 106.609 11.7762 106.846 11.389C107.083 11.0019 107.427 10.6961 107.832 10.5105C108.238 10.325 108.688 10.2679 109.125 10.3466C109.563 10.4253 109.968 10.6362 110.288 10.9526C110.609 11.2689 110.832 11.6765 110.928 12.1237C111.025 12.5708 110.99 13.0374 110.829 13.4643C110.668 13.8911 110.388 14.259 110.024 14.5213C109.66 14.7836 109.229 14.9285 108.785 14.9377C108.491 14.9585 108.196 14.9164 107.918 14.8139C107.64 14.7114 107.386 14.5507 107.172 14.342C106.957 14.1333 106.787 13.8811 106.671 13.6012C106.555 13.3213 106.497 13.0197 106.5 12.7154V12.6852ZM106.5 16.011H110.895V29.8887H106.5V16.011ZM126.848 22.9498C126.848 27.485 124.899 30.0701 121.559 30.0701C120.703 30.1268 119.85 29.9108 119.117 29.4512C118.383 28.9915 117.804 28.3105 117.458 27.5002H117.37V34.3332H112.975V15.9807H117.37V18.46H117.458C117.788 17.6363 118.356 16.9375 119.084 16.4587C119.813 15.98 120.667 15.7445 121.53 15.7842C124.899 15.8447 126.906 18.4449 126.906 22.9801L126.848 22.9498ZM122.453 22.9498C122.453 20.7427 121.471 19.3368 119.933 19.3368C118.395 19.3368 117.414 20.7578 117.399 22.9498C117.384 25.1419 118.395 26.5478 119.933 26.5478C121.471 26.5478 122.453 25.1721 122.453 22.9801V22.9498ZM134.392 15.6935C138.04 15.6935 140.252 17.4774 140.354 20.3345H136.355C136.355 19.3519 135.564 18.7321 134.348 18.7321C133.132 18.7321 132.59 19.2159 132.59 19.9264C132.59 20.6369 133.074 20.8636 134.055 21.0753L136.868 21.6649C139.549 22.2544 140.691 23.3731 140.691 25.4744C140.691 28.3467 138.157 30.191 134.421 30.191C130.686 30.191 128.239 28.3467 128.049 25.5198H132.283C132.414 26.5478 133.206 27.1525 134.495 27.1525C135.784 27.1525 136.37 26.7141 136.37 25.9884C136.37 25.2628 135.96 25.1116 134.905 24.8849L132.371 24.3255C129.748 23.7662 128.371 22.33 128.371 20.2136C128.401 17.4925 130.759 15.7238 134.392 15.7238V15.6935ZM155.355 29.8585H151.122V27.2734H151.034C150.801 28.1413 150.288 28.901 149.579 29.4262C148.87 29.9515 148.008 30.2107 147.137 30.1608C146.469 30.2 145.801 30.0908 145.178 29.8406C144.555 29.5905 143.991 29.2052 143.524 28.7108C143.057 28.2163 142.699 27.6243 142.473 26.9747C142.247 26.3251 142.159 25.6331 142.215 24.9453V15.9807H146.61V23.9022C146.61 25.55 147.43 26.4268 148.792 26.4268C149.112 26.4275 149.428 26.3577 149.719 26.2221C150.01 26.0865 150.27 25.8882 150.481 25.6405C150.692 25.3929 150.849 25.1015 150.942 24.7861C151.034 24.4707 151.061 24.1384 151.019 23.8115V15.9807H155.414L155.355 29.8585ZM157.48 15.9807H161.728V18.6565H161.816C162.049 17.8001 162.551 17.0476 163.243 16.5169C163.934 15.9863 164.777 15.7073 165.639 15.7238C166.516 15.6513 167.387 15.9221 168.079 16.4823C168.772 17.0426 169.234 17.8511 169.375 18.7472H169.463C169.728 17.8416 170.279 17.053 171.027 16.5056C171.775 15.9582 172.678 15.6831 173.594 15.7238C174.191 15.703 174.787 15.8123 175.341 16.0445C175.895 16.2766 176.395 16.6265 176.81 17.0713C177.224 17.5162 177.543 18.046 177.747 18.6264C177.95 19.2069 178.032 19.8249 177.989 20.4404V29.8887H173.594V21.6497C173.594 20.138 172.935 19.4426 171.704 19.4426C171.43 19.4402 171.158 19.4986 170.907 19.6138C170.657 19.729 170.433 19.8983 170.251 20.1103C170.069 20.3224 169.933 20.5722 169.853 20.843C169.773 21.1138 169.749 21.3992 169.785 21.68V29.8887H165.61V21.5893C165.61 20.1985 164.951 19.4426 163.749 19.4426C163.472 19.4427 163.198 19.5035 162.944 19.621C162.691 19.7386 162.465 19.9101 162.281 20.1244C162.097 20.3387 161.959 20.5908 161.876 20.8642C161.794 21.1375 161.768 21.4259 161.801 21.7102V29.8887H157.406L157.48 15.9807Z" fill="white"/>
<path d="M42.1013 12.3829C41.3558 10.6238 40.3691 8.9844 39.1715 7.5151C37.401 5.27825 35.1916 3.45367 32.6886 2.16146C30.1857 0.869246 27.4459 0.1387 24.6496 0.0179001C21.8533 -0.1029 19.0639 0.388783 16.465 1.46059C13.8661 2.5324 11.5167 4.16004 9.57129 6.23637C7.62589 8.3127 6.12865 10.7907 5.17813 13.5071C4.2276 16.2236 3.84534 19.117 4.05649 21.9969C4.26765 24.8769 5.06744 27.678 6.40323 30.2159C7.73901 32.7539 9.5805 34.9712 11.8065 36.7218C13.2348 37.8675 14.8131 38.7989 16.4943 39.4883C18.8514 40.4851 21.3741 40.9985 23.9215 41C29.1797 40.988 34.2189 38.8251 37.9343 34.9853C41.6497 31.1455 43.7382 25.9422 43.7421 20.516C43.7459 17.7171 43.1873 14.9477 42.1013 12.3829V12.3829ZM23.9069 4.17416C26.1944 4.17391 28.4544 4.68987 30.5284 5.6859V5.6859C30.0226 5.9114 29.4909 6.0689 28.9462 6.15454C27.154 6.42226 25.4938 7.2809 24.2133 8.60229C22.9328 9.92369 22.1007 11.637 21.8413 13.4864C21.7274 14.5237 21.2703 15.4886 20.547 16.2184C19.8238 16.9483 18.8787 17.3983 17.8713 17.4925C16.0791 17.7603 14.4189 18.6189 13.1384 19.9403C11.8579 21.2617 11.0258 22.975 10.7664 24.8244C10.6786 25.8107 10.2708 26.7375 9.6091 27.4549V27.4549C8.46741 24.9654 7.95453 22.2184 8.11819 19.4695C8.28186 16.7205 9.11674 14.0589 10.5451 11.7325C11.9736 9.40597 13.9491 7.49018 16.2878 6.16338C18.6266 4.83657 21.2526 4.14188 23.9215 4.14393L23.9069 4.17416ZM11.7919 31.0981C11.9676 30.9319 12.1434 30.7807 12.3192 30.5993C13.6225 29.2953 14.4591 27.5741 14.6924 25.7164C14.787 24.6721 15.2388 23.6968 15.9669 22.965C16.6675 22.2124 17.6105 21.7501 18.6184 21.6649C20.4107 21.3972 22.0709 20.5386 23.3514 19.2172C24.6319 17.8958 25.4639 16.1825 25.7234 14.333C25.7867 13.2408 26.2409 12.2118 26.9979 11.4456C27.7158 10.7077 28.6678 10.2621 29.6787 10.1909C31.3252 9.9571 32.8607 9.20176 34.0735 8.02909C35.4544 9.21137 36.6244 10.6336 37.5307 12.2317C37.4751 12.3093 37.4112 12.3803 37.3403 12.4434C36.641 13.2025 35.6992 13.6751 34.6888 13.7737C32.8947 14.0367 31.232 14.8938 29.9506 16.2161C28.6693 17.5384 27.8387 19.2542 27.5838 21.1056C27.4806 22.1463 27.0319 23.1182 26.3137 23.8566C25.5955 24.5949 24.652 25.0544 23.6432 25.157C21.8457 25.4227 20.1793 26.2796 18.8914 27.6005C17.6035 28.9214 16.7628 30.6357 16.4943 32.4889C16.4154 33.2278 16.1696 33.9372 15.7765 34.56C14.2734 33.6391 12.9273 32.4696 11.7919 31.0981V31.0981ZM23.9069 36.9334C22.4203 36.9351 20.941 36.7214 19.5121 36.2985C20.0008 35.3582 20.3186 34.3335 20.4496 33.275C20.5523 32.2366 20.9989 31.2666 21.7141 30.5285C22.4293 29.7904 23.3694 29.3295 24.3756 29.2236C26.1705 28.9589 27.8341 28.1016 29.1174 26.7799C30.4008 25.4583 31.235 23.7433 31.4952 21.8917C31.5979 20.8533 32.0445 19.8832 32.7597 19.1451C33.4749 18.4071 34.415 17.9462 35.4212 17.8402C36.7719 17.6589 38.0593 17.14 39.1715 16.3285C39.789 18.7441 39.8622 21.2736 39.3853 23.7229C38.9085 26.1722 37.8943 28.4763 36.4205 30.4583C34.9468 32.4403 33.0527 34.0477 30.8835 35.157C28.7143 36.2663 26.3278 36.8481 23.9069 36.8579V36.9334Z" fill="#F2726F"/>
</g>
<defs>
<filter id="filter0_dd_926_411" x="0" y="0" width="182" height="49" filterUnits="userSpaceOnUse" color-interpolation-filters="sRGB">
<feFlood flood-opacity="0" result="BackgroundImageFix"/>
<feColorMatrix in="SourceAlpha" type="matrix" values="0 0 0 0 0 0 0 0 0 0 0 0 0 0 0 0 0 0 127 0" result="hardAlpha"/>
<feOffset dy="4"/>
<feGaussianBlur stdDeviation="2"/>
<feComposite in2="hardAlpha" operator="out"/>
<feColorMatrix type="matrix" values="0 0 0 0 0 0 0 0 0 0 0 0 0 0 0 0 0 0 0.25 0"/>
<feBlend mode="normal" in2="BackgroundImageFix" result="effect1_dropShadow_926_411"/>
<feColorMatrix in="SourceAlpha" type="matrix" values="0 0 0 0 0 0 0 0 0 0 0 0 0 0 0 0 0 0 127 0" result="hardAlpha"/>
<feOffset dy="4"/>
<feGaussianBlur stdDeviation="2"/>
<feComposite in2="hardAlpha" operator="out"/>
<feColorMatrix type="matrix" values="0 0 0 0 0 0 0 0 0 0 0 0 0 0 0 0 0 0 0.25 0"/>
<feBlend mode="normal" in2="effect1_dropShadow_926_411" result="effect2_dropShadow_926_411"/>
<feBlend mode="normal" in="SourceGraphic" in2="effect2_dropShadow_926_411" result="shape"/>
</filter>
</defs>
</svg>
