<svg width="695" height="308" viewBox="0 0 695 308" fill="none" xmlns="http://www.w3.org/2000/svg">
<path d="M284.013 -156.642C240.562 -137.718 266.965 -81.7351 230.904 -55.3154C183.723 -20.7481 94.9968 -31.9144 58.2196 8.78407C20.8921 50.0914 27.203 104.95 46.0987 149.194C66.5356 197.047 105.873 242.551 166.945 263.365C227.298 283.933 302.596 276.912 369.198 259.307C428.214 243.706 464.631 201.131 514.28 171.55C562.279 142.951 631.862 129.638 656.2 88.3077C680.581 46.9068 664.945 -1.10248 637.703 -38.0334C613.607 -70.6971 560.354 -81.5789 517.035 -100.347C483.935 -114.688 450.77 -126.093 413.877 -135.006C371.12 -145.335 325.463 -174.695 284.013 -156.642Z" fill="#2AB1AD"/>
</svg>
